<svg width="398" height="160" viewBox="0 0 398 160" fill="none" xmlns="http://www.w3.org/2000/svg" role="img" aria-label="confwire logo white">
  <path d="M 93.2 44.0 A 44 44 0 1 0 93.2 116.0" stroke="#FFFFFF" stroke-width="16" stroke-linecap="round" fill="none"/>
  <circle cx="93.2" cy="44.0" r="11" fill="#FFFFFF"/>
  <circle cx="93.2" cy="116.0" r="11" fill="#FFFFFF"/>
  <path d="M130.502 96.102Q126.384 96.102 123.339 94.739Q120.294 93.376 118.264 91.05600000000001Q116.234 88.736 115.24799999999999 85.807Q114.262 82.878 114.262 79.746V78.644Q114.262 75.396 115.306 72.40899999999999Q116.35 69.422 118.38 67.102Q120.41 64.782 123.455 63.44799999999999Q126.5 62.114 130.44400000000002 62.114Q134.736 62.114 138.042 63.766999999999996Q141.348 65.42 143.32 68.378Q145.292 71.336 145.524 75.164H136.418Q136.186 73.018 134.707 71.539Q133.228 70.06 130.44400000000002 70.06Q128.124 70.06 126.58699999999999 71.22Q125.05 72.38 124.29599999999999 74.41Q123.542 76.44 123.542 79.224Q123.542 81.776 124.238 83.83500000000001Q124.934 85.894 126.471 87.025Q128.008 88.156 130.502 88.156Q132.358 88.156 133.663 87.489Q134.968 86.822 135.75099999999998 85.63300000000001Q136.534 84.444 136.708 82.878H145.756Q145.582 86.822 143.552 89.809Q141.522 92.796 138.15800000000002 94.44900000000001Q134.794 96.102 130.502 96.102Z M166.658 96.102Q162.482 96.102 159.23399999999998 94.797Q155.986 93.492 153.753 91.23Q151.51999999999998 88.968 150.35999999999999 86.039Q149.2 83.11 149.2 79.862V78.52799999999999Q149.2 75.222 150.38899999999998 72.23499999999999Q151.57799999999997 69.24799999999999 153.86899999999997 66.98599999999999Q156.16 64.724 159.408 63.419Q162.65599999999998 62.114 166.658 62.114Q170.77599999999998 62.114 173.995 63.419Q177.214 64.724 179.476 66.98599999999999Q181.738 69.24799999999999 182.956 72.23499999999999Q184.17399999999998 75.222 184.17399999999998 78.52799999999999V79.862Q184.17399999999998 83.11 183.01399999999998 86.039Q181.85399999999998 88.968 179.62099999999998 91.23Q177.38799999999998 93.492 174.14 94.797Q170.892 96.102 166.658 96.102ZM166.658 88.272Q169.384 88.272 171.182 87.112Q172.98 85.952 173.937 83.864Q174.894 81.776 174.894 79.224Q174.894 76.49799999999999 173.90800000000002 74.439Q172.922 72.38 171.095 71.162Q169.268 69.944 166.658 69.944Q164.106 69.944 162.25 71.162Q160.39399999999998 72.38 159.43699999999998 74.439Q158.48 76.49799999999999 158.48 79.224Q158.48 81.776 159.408 83.864Q160.33599999999998 85.952 162.192 87.112Q164.048 88.272 166.658 88.272Z M190.17 95.0V63.215999999999994H197.53599999999997V76.846H197.01399999999998Q197.01399999999998 71.974 198.26099999999997 68.726Q199.50799999999998 65.478 202.05999999999997 63.854Q204.61199999999997 62.23 208.266 62.23H208.67199999999997Q214.23999999999998 62.23 217.16899999999998 65.855Q220.09799999999998 69.48 220.09799999999998 76.846V95.0H210.81799999999998V76.324Q210.81799999999998 73.77199999999999 209.30999999999997 72.148Q207.80199999999996 70.524 205.24999999999997 70.524Q202.64 70.524 201.045 72.17699999999999Q199.45 73.83 199.45 76.49799999999999V95.0Z M228.182 95.0V62.925999999999995Q228.182 57.416 231.31399999999996 54.748Q234.44599999999997 52.08 240.53599999999997 52.08H244.59599999999998V59.04H240.13Q238.564 59.04 237.694 59.91Q236.82399999999998 60.78 236.82399999999998 62.346V95.0ZM224.41199999999998 70.64V63.854H245.05999999999997V70.64Z" fill="#FFFFFF"/>
  <path d="M260.8 95.0 266.59999999999997 64.25999999999999H276.75L283.478 95.0H276.286L269.384 64.49199999999999H273.502L267.296 95.0ZM258.596 95.0 258.538 87.286H264.918L264.976 95.0ZM254.42 95.0 245.89399999999998 63.215999999999994H255.0L262.94599999999997 95.0ZM278.664 95.0 278.722 87.286H285.102V95.0ZM281.274 95.0 288.34999999999997 63.215999999999994H296.876L289.21999999999997 95.0Z M303.62600000000003 95.0V63.215999999999994H312.906V95.0ZM299.392 70.06V63.215999999999994H312.906V70.06ZM307.22200000000004 60.083999999999996Q304.612 60.083999999999996 303.365 58.721Q302.118 57.358 302.118 55.269999999999996Q302.118 53.123999999999995 303.365 51.760999999999996Q304.612 50.397999999999996 307.22200000000004 50.397999999999996Q309.832 50.397999999999996 311.079 51.760999999999996Q312.326 53.123999999999995 312.326 55.269999999999996Q312.326 57.358 311.079 58.721Q309.832 60.083999999999996 307.22200000000004 60.083999999999996Z M320.99 95.0V63.215999999999994H328.35600000000005V76.846H328.182Q328.182 70.118 331.053 66.464Q333.92400000000004 62.809999999999995 339.37600000000003 62.809999999999995H340.59400000000005V70.814H338.274Q334.446 70.814 332.35800000000006 72.87299999999999Q330.27000000000004 74.932 330.27000000000004 78.818V95.0Z M359.466 96.102Q355.40600000000006 96.102 352.30300000000005 94.71000000000001Q349.20000000000005 93.318 347.1410000000001 90.969Q345.08200000000005 88.62 344.009 85.691Q342.93600000000004 82.762 342.93600000000004 79.688V78.52799999999999Q342.93600000000004 75.338 344.009 72.40899999999999Q345.08200000000005 69.48 347.1120000000001 67.16Q349.14200000000005 64.84 352.187 63.477000000000004Q355.232 62.114 359.11800000000005 62.114Q364.22200000000004 62.114 367.731 64.405Q371.24 66.696 373.096 70.37899999999999Q374.95200000000006 74.062 374.95200000000006 78.412V81.544H346.82200000000006V76.26599999999999H369.326L366.31000000000006 78.702Q366.31000000000006 75.86 365.49800000000005 73.83Q364.68600000000004 71.8 363.091 70.727Q361.49600000000004 69.654 359.11800000000005 69.654Q356.682 69.654 355.0 70.756Q353.31800000000004 71.858 352.44800000000004 73.975Q351.57800000000003 76.092 351.57800000000003 79.166Q351.57800000000003 82.008 352.39000000000004 84.125Q353.20200000000006 86.242 354.942 87.402Q356.682 88.562 359.466 88.562Q362.01800000000003 88.562 363.64200000000005 87.576Q365.266 86.59 365.84600000000006 85.14H374.372Q373.67600000000004 88.33 371.6460000000001 90.824Q369.61600000000004 93.318 366.54200000000003 94.71000000000001Q363.468 96.102 359.466 96.102Z" fill="#FFFFFF"/>
</svg>